# xmcd
#
# Track frame offsets:
#	150
#	19487
#	42160
#	61592
#	83370
#	103615
#	122772
#	140890
#	163697
#	184390
#	202722
#	223487
#	241127
#	252625
#
# Disc length: 3614
#
# Revision: 1
# Processed by: cddbd v1.5.1PL0 Copyright (c) Steve Scherf et al.
# Submitted via: dBpowerAMP V4.0
# Normalized: r0:TDELIM( - )
#
DISCID=c80e1c0e
DTITLE=Various Artist - Slide Guitar Fab 14
DYEAR=1900
DGENRE=Blues
TTITLE0=Luther "Guitar Junior " Johnson - Walkin' with you baby
TTITLE1=Bobby King and Terry Evans - One way ticket to Memphis
TTITLE2=The Smokin' Joe Kubek Band featuring Bnois King - Play on little girl
TTITLE3=George Thorogood and the Destroyers - Baby please set a date
TTITLE4=Mike Morgan and the Crawl - Wild about you baby
TTITLE5=Jim Suhler and Monkey Beat - Little boy blue
TTITLE6=Imperial Crowns - Stone righteous
TTITLE7=Ronnie Earl and the Broadcasters - Blue guitar
TTITLE8=John Mooney - Late last night
TTITLE9=Monti Amundson - Oh, Johnny why
TTITLE10=J.B.Hutto and the New Hawks - Pretty baby
TTITLE11=Magic Slim and the Teardrops - Make my dreams come true
TTITLE12=Bob Brozman - Never hit the same place twice
TTITLE13=John Hammond - Louisiana blues
EXTD=Rounder Europe Sampler
EXTT0=
EXTT1=
EXTT2=
EXTT3=
EXTT4=
EXTT5=
EXTT6=
EXTT7=
EXTT8=
EXTT9=
EXTT10=
EXTT11=
EXTT12=
EXTT13=
PLAYORDER=
